<mxfile host="Electron" agent="Mozilla/5.0 (Windows NT 10.0; Win64; x64) AppleWebKit/537.36 (KHTML, like Gecko) draw.io/24.7.8 Chrome/128.0.6613.36 Electron/32.0.1 Safari/537.36" version="24.7.8" pages="5">
  <diagram id="rzSxVUPhayzVTJ0IaLlM" name="Diagramme de cas d&#39;utilisation">
    <mxGraphModel dx="1434" dy="870" grid="1" gridSize="10" guides="1" tooltips="1" connect="1" arrows="1" fold="1" page="1" pageScale="1" pageWidth="827" pageHeight="1169" math="0" shadow="0">
      <root>
        <mxCell id="0" />
        <mxCell id="1" parent="0" />
        <mxCell id="RuNjiTRsKxTiZFjz-mgZ-1" value="&lt;font style=&quot;font-size: 20px;&quot;&gt;Besoin&lt;/font&gt;" style="shape=umlFrame;whiteSpace=wrap;html=1;pointerEvents=0;width=340;height=80;" parent="1" vertex="1">
          <mxGeometry x="40" y="70" width="1600" height="1600" as="geometry" />
        </mxCell>
        <mxCell id="RuNjiTRsKxTiZFjz-mgZ-2" value="" style="rounded=0;whiteSpace=wrap;html=1;" parent="1" vertex="1">
          <mxGeometry x="480" y="290" width="830" height="1270" as="geometry" />
        </mxCell>
        <mxCell id="RuNjiTRsKxTiZFjz-mgZ-6" style="rounded=0;orthogonalLoop=1;jettySize=auto;html=1;endArrow=none;endFill=0;" parent="1" source="RuNjiTRsKxTiZFjz-mgZ-3" edge="1">
          <mxGeometry relative="1" as="geometry">
            <mxPoint x="550" y="590" as="targetPoint" />
          </mxGeometry>
        </mxCell>
        <mxCell id="RuNjiTRsKxTiZFjz-mgZ-3" value="Utilisateur" style="shape=umlActor;verticalLabelPosition=bottom;verticalAlign=top;html=1;outlineConnect=0;" parent="1" vertex="1">
          <mxGeometry x="270" y="460" width="30" height="60" as="geometry" />
        </mxCell>
        <mxCell id="RuNjiTRsKxTiZFjz-mgZ-4" value="Cree un compte" style="ellipse;whiteSpace=wrap;html=1;" parent="1" vertex="1">
          <mxGeometry x="580" y="380" width="210" height="80" as="geometry" />
        </mxCell>
        <mxCell id="RuNjiTRsKxTiZFjz-mgZ-5" value="Se connect" style="ellipse;whiteSpace=wrap;html=1;" parent="1" vertex="1">
          <mxGeometry x="560" y="550" width="210" height="80" as="geometry" />
        </mxCell>
        <mxCell id="RuNjiTRsKxTiZFjz-mgZ-7" style="rounded=0;orthogonalLoop=1;jettySize=auto;html=1;endArrow=none;endFill=0;" parent="1" edge="1">
          <mxGeometry relative="1" as="geometry">
            <mxPoint x="310" y="480" as="sourcePoint" />
            <mxPoint x="560" y="430" as="targetPoint" />
          </mxGeometry>
        </mxCell>
        <mxCell id="tbMC5gWxfiN0tlk7WDam-4" style="rounded=0;orthogonalLoop=1;jettySize=auto;html=1;endArrow=none;endFill=0;" parent="1" edge="1">
          <mxGeometry relative="1" as="geometry">
            <mxPoint x="1450" y="1290" as="sourcePoint" />
            <mxPoint x="1210" y="1180" as="targetPoint" />
          </mxGeometry>
        </mxCell>
        <mxCell id="RuNjiTRsKxTiZFjz-mgZ-8" value="Admin" style="shape=umlActor;verticalLabelPosition=bottom;verticalAlign=top;html=1;outlineConnect=0;" parent="1" vertex="1">
          <mxGeometry x="1500" y="1260" width="30" height="60" as="geometry" />
        </mxCell>
        <mxCell id="tbMC5gWxfiN0tlk7WDam-2" value="Suppirme un compte" style="ellipse;whiteSpace=wrap;html=1;" parent="1" vertex="1">
          <mxGeometry x="970" y="1280" width="210" height="80" as="geometry" />
        </mxCell>
        <mxCell id="tbMC5gWxfiN0tlk7WDam-3" value="Supprime un message" style="ellipse;whiteSpace=wrap;html=1;" parent="1" vertex="1">
          <mxGeometry x="970" y="1120" width="210" height="80" as="geometry" />
        </mxCell>
        <mxCell id="tbMC5gWxfiN0tlk7WDam-5" style="rounded=0;orthogonalLoop=1;jettySize=auto;html=1;endArrow=none;endFill=0;" parent="1" edge="1">
          <mxGeometry relative="1" as="geometry">
            <mxPoint x="1440" y="1330" as="sourcePoint" />
            <mxPoint x="1220" y="1320" as="targetPoint" />
          </mxGeometry>
        </mxCell>
        <mxCell id="tbMC5gWxfiN0tlk7WDam-13" style="rounded=0;orthogonalLoop=1;jettySize=auto;html=1;endArrow=none;endFill=0;" parent="1" edge="1">
          <mxGeometry relative="1" as="geometry">
            <mxPoint x="340" y="870" as="sourcePoint" />
            <mxPoint x="540" y="970" as="targetPoint" />
          </mxGeometry>
        </mxCell>
        <mxCell id="tbMC5gWxfiN0tlk7WDam-15" style="rounded=0;orthogonalLoop=1;jettySize=auto;html=1;endArrow=none;endFill=0;exitX=0.026;exitY=0.616;exitDx=0;exitDy=0;exitPerimeter=0;" parent="1" edge="1">
          <mxGeometry relative="1" as="geometry">
            <mxPoint x="555.4599999999998" y="770" as="sourcePoint" />
            <mxPoint x="330.0011132584277" y="830.7171550062399" as="targetPoint" />
          </mxGeometry>
        </mxCell>
        <mxCell id="tbMC5gWxfiN0tlk7WDam-6" value="Lire/Envoyer/recevoir des messages&lt;div&gt;qui le concerne&lt;/div&gt;" style="ellipse;whiteSpace=wrap;html=1;" parent="1" vertex="1">
          <mxGeometry x="560" y="950" width="210" height="80" as="geometry" />
        </mxCell>
        <mxCell id="tbMC5gWxfiN0tlk7WDam-11" value="Se deconnect" style="ellipse;whiteSpace=wrap;html=1;" parent="1" vertex="1">
          <mxGeometry x="560" y="710" width="210" height="80" as="geometry" />
        </mxCell>
        <mxCell id="tbMC5gWxfiN0tlk7WDam-19" style="rounded=0;orthogonalLoop=1;jettySize=auto;html=1;endArrow=none;endFill=0;" parent="1" edge="1">
          <mxGeometry relative="1" as="geometry">
            <mxPoint x="539.9956789867101" y="868.755409797759" as="sourcePoint" />
            <mxPoint x="370" y="860" as="targetPoint" />
          </mxGeometry>
        </mxCell>
        <mxCell id="tbMC5gWxfiN0tlk7WDam-18" value="Modification des donnees&amp;nbsp;&lt;div&gt;personnel de l&#39;utilisateur&lt;/div&gt;" style="ellipse;whiteSpace=wrap;html=1;" parent="1" vertex="1">
          <mxGeometry x="570" y="830" width="210" height="80" as="geometry" />
        </mxCell>
        <mxCell id="jB0TjRwKTb-YxhxlIXrM-1" value="Utilisateur authentifie&lt;div&gt;&lt;br&gt;&lt;/div&gt;" style="shape=umlActor;verticalLabelPosition=bottom;verticalAlign=top;html=1;outlineConnect=0;" vertex="1" parent="1">
          <mxGeometry x="270" y="780" width="30" height="60" as="geometry" />
        </mxCell>
        <mxCell id="jB0TjRwKTb-YxhxlIXrM-3" style="rounded=0;orthogonalLoop=1;jettySize=auto;html=1;endArrow=none;endFill=0;" edge="1" parent="1">
          <mxGeometry relative="1" as="geometry">
            <mxPoint x="1190" y="1448.06" as="sourcePoint" />
            <mxPoint x="1480" y="1330" as="targetPoint" />
          </mxGeometry>
        </mxCell>
        <mxCell id="jB0TjRwKTb-YxhxlIXrM-2" value="Voir les messages" style="ellipse;whiteSpace=wrap;html=1;" vertex="1" parent="1">
          <mxGeometry x="970" y="1400" width="210" height="80" as="geometry" />
        </mxCell>
      </root>
    </mxGraphModel>
  </diagram>
  <diagram id="Zy1X2466kICo45ckA4n6" name="Diagramme de sequence - creation d&#39;un utilisateur">
    <mxGraphModel dx="1912" dy="1160" grid="1" gridSize="10" guides="1" tooltips="1" connect="1" arrows="1" fold="1" page="1" pageScale="1" pageWidth="827" pageHeight="1169" math="0" shadow="0">
      <root>
        <mxCell id="0" />
        <mxCell id="1" parent="0" />
        <mxCell id="K-NkV97JLidoQYmr00XE-3" value="&lt;span style=&quot;font-size: 25px;&quot;&gt;Diagramme de sequence&amp;nbsp;&lt;/span&gt;&lt;div&gt;&lt;span style=&quot;font-size: 25px;&quot;&gt;De la creation d&#39;un compte&lt;/span&gt;&lt;/div&gt;" style="shape=umlFrame;whiteSpace=wrap;html=1;pointerEvents=0;recursiveResize=0;container=1;collapsible=0;width=480;height=120;" parent="1" vertex="1">
          <mxGeometry x="240" y="360" width="1850" height="1060" as="geometry" />
        </mxCell>
        <mxCell id="Rs2yxnJCl3-W8B5lqrMH-7" value="Serveur web" style="shape=umlLifeline;perimeter=lifelinePerimeter;whiteSpace=wrap;html=1;container=1;dropTarget=0;collapsible=0;recursiveResize=0;outlineConnect=0;portConstraint=eastwest;newEdgeStyle={&quot;curved&quot;:0,&quot;rounded&quot;:0};" parent="K-NkV97JLidoQYmr00XE-3" vertex="1">
          <mxGeometry x="730" y="280" width="100" height="720" as="geometry" />
        </mxCell>
        <mxCell id="Rs2yxnJCl3-W8B5lqrMH-10" value="" style="group" parent="K-NkV97JLidoQYmr00XE-3" vertex="1" connectable="0">
          <mxGeometry x="320" y="188" width="90" height="2622" as="geometry" />
        </mxCell>
        <mxCell id="Rs2yxnJCl3-W8B5lqrMH-9" value="Utilisateur 1" style="text;html=1;align=center;verticalAlign=middle;resizable=0;points=[];autosize=1;strokeColor=none;fillColor=none;" parent="Rs2yxnJCl3-W8B5lqrMH-10" vertex="1">
          <mxGeometry width="90" height="30" as="geometry" />
        </mxCell>
        <mxCell id="Rs2yxnJCl3-W8B5lqrMH-6" value="" style="shape=umlLifeline;perimeter=lifelinePerimeter;whiteSpace=wrap;html=1;container=1;dropTarget=0;collapsible=0;recursiveResize=0;outlineConnect=0;portConstraint=eastwest;newEdgeStyle={&quot;curved&quot;:0,&quot;rounded&quot;:0};participant=umlActor;size=90;" parent="Rs2yxnJCl3-W8B5lqrMH-10" vertex="1">
          <mxGeometry x="10" y="72.33" width="40" height="737.67" as="geometry" />
        </mxCell>
        <mxCell id="-JUh_HezEt9LTVMWiMuT-8" value="" style="endArrow=open;dashed=1;endFill=0;endSize=12;html=1;rounded=0;" parent="Rs2yxnJCl3-W8B5lqrMH-10" edge="1">
          <mxGeometry width="160" relative="1" as="geometry">
            <mxPoint x="460.03999999999996" y="393.80229885057474" as="sourcePoint" />
            <mxPoint x="29.970000000000027" y="393.80229885057474" as="targetPoint" />
          </mxGeometry>
        </mxCell>
        <mxCell id="Rs2yxnJCl3-W8B5lqrMH-60" value="Base de donnee" style="shape=umlLifeline;perimeter=lifelinePerimeter;whiteSpace=wrap;html=1;container=1;dropTarget=0;collapsible=0;recursiveResize=0;outlineConnect=0;portConstraint=eastwest;newEdgeStyle={&quot;curved&quot;:0,&quot;rounded&quot;:0};" parent="K-NkV97JLidoQYmr00XE-3" vertex="1">
          <mxGeometry x="1240" y="280" width="100" height="720" as="geometry" />
        </mxCell>
        <mxCell id="Rs2yxnJCl3-W8B5lqrMH-64" value="websocket" style="shape=umlLifeline;perimeter=lifelinePerimeter;whiteSpace=wrap;html=1;container=1;dropTarget=0;collapsible=0;recursiveResize=0;outlineConnect=0;portConstraint=eastwest;newEdgeStyle={&quot;curved&quot;:0,&quot;rounded&quot;:0};" parent="K-NkV97JLidoQYmr00XE-3" vertex="1">
          <mxGeometry x="1650" y="280" width="100" height="720" as="geometry" />
        </mxCell>
        <mxCell id="-JUh_HezEt9LTVMWiMuT-1" value="" style="endArrow=classic;html=1;rounded=0;" parent="K-NkV97JLidoQYmr00XE-3" target="Rs2yxnJCl3-W8B5lqrMH-7" edge="1">
          <mxGeometry width="50" height="50" relative="1" as="geometry">
            <mxPoint x="349.07142857142844" y="400" as="sourcePoint" />
            <mxPoint x="640" y="400" as="targetPoint" />
          </mxGeometry>
        </mxCell>
        <mxCell id="-JUh_HezEt9LTVMWiMuT-2" value="&lt;font style=&quot;font-size: 14px;&quot;&gt;envoie d&#39;un formulailre en post pour la creation d&#39;un&amp;nbsp; utilisateur&lt;/font&gt;" style="text;html=1;align=center;verticalAlign=middle;resizable=0;points=[];autosize=1;strokeColor=none;fillColor=none;" parent="K-NkV97JLidoQYmr00XE-3" vertex="1">
          <mxGeometry x="360" y="378" width="410" height="30" as="geometry" />
        </mxCell>
        <mxCell id="-JUh_HezEt9LTVMWiMuT-3" value="" style="endArrow=open;dashed=1;endFill=0;endSize=12;html=1;rounded=0;" parent="K-NkV97JLidoQYmr00XE-3" target="Rs2yxnJCl3-W8B5lqrMH-6" edge="1">
          <mxGeometry width="160" relative="1" as="geometry">
            <mxPoint x="780.0699999999999" y="460" as="sourcePoint" />
            <mxPoint x="599.9985714285713" y="460" as="targetPoint" />
          </mxGeometry>
        </mxCell>
        <mxCell id="-JUh_HezEt9LTVMWiMuT-5" value="&lt;font style=&quot;font-size: 15px;&quot;&gt;Mail n&#39;est pas au bon format&lt;/font&gt;" style="text;html=1;align=center;verticalAlign=middle;resizable=0;points=[];autosize=1;strokeColor=none;fillColor=none;" parent="K-NkV97JLidoQYmr00XE-3" vertex="1">
          <mxGeometry x="460" y="440" width="210" height="30" as="geometry" />
        </mxCell>
        <mxCell id="-JUh_HezEt9LTVMWiMuT-6" value="" style="endArrow=open;dashed=1;endFill=0;endSize=12;html=1;rounded=0;" parent="K-NkV97JLidoQYmr00XE-3" edge="1">
          <mxGeometry width="160" relative="1" as="geometry">
            <mxPoint x="780.0699999999999" y="520" as="sourcePoint" />
            <mxPoint x="350" y="520" as="targetPoint" />
          </mxGeometry>
        </mxCell>
        <mxCell id="-JUh_HezEt9LTVMWiMuT-7" value="&lt;font style=&quot;font-size: 15px;&quot;&gt;Les mots de passe ne corresponde pas&lt;/font&gt;" style="text;html=1;align=center;verticalAlign=middle;resizable=0;points=[];autosize=1;strokeColor=none;fillColor=none;" parent="K-NkV97JLidoQYmr00XE-3" vertex="1">
          <mxGeometry x="420" y="500" width="290" height="30" as="geometry" />
        </mxCell>
        <mxCell id="-JUh_HezEt9LTVMWiMuT-9" value="&lt;font style=&quot;font-size: 15px;&quot;&gt;le nom d&#39;utilisateur est deja pris&lt;/font&gt;" style="text;html=1;align=center;verticalAlign=middle;resizable=0;points=[];autosize=1;strokeColor=none;fillColor=none;" parent="K-NkV97JLidoQYmr00XE-3" vertex="1">
          <mxGeometry x="450" y="560" width="230" height="30" as="geometry" />
        </mxCell>
        <mxCell id="-JUh_HezEt9LTVMWiMuT-10" value="" style="endArrow=classic;html=1;rounded=0;exitX=-0.002;exitY=0.741;exitDx=0;exitDy=0;exitPerimeter=0;" parent="K-NkV97JLidoQYmr00XE-3" target="Rs2yxnJCl3-W8B5lqrMH-60" edge="1">
          <mxGeometry width="50" height="50" relative="1" as="geometry">
            <mxPoint x="780" y="632.23" as="sourcePoint" />
            <mxPoint x="1260.28" y="632.23" as="targetPoint" />
          </mxGeometry>
        </mxCell>
        <mxCell id="-JUh_HezEt9LTVMWiMuT-11" value="&lt;font style=&quot;font-size: 15px;&quot;&gt;Creation de l&#39;utilisateur en base de donnee&lt;/font&gt;" style="text;html=1;align=center;verticalAlign=middle;resizable=0;points=[];autosize=1;strokeColor=none;fillColor=none;" parent="K-NkV97JLidoQYmr00XE-3" vertex="1">
          <mxGeometry x="870.0000000000001" y="610" width="310" height="30" as="geometry" />
        </mxCell>
        <mxCell id="-JUh_HezEt9LTVMWiMuT-13" value="" style="endArrow=open;dashed=1;endFill=0;endSize=12;html=1;rounded=0;" parent="K-NkV97JLidoQYmr00XE-3" target="Rs2yxnJCl3-W8B5lqrMH-7" edge="1">
          <mxGeometry width="160" relative="1" as="geometry">
            <mxPoint x="1290.07" y="710" as="sourcePoint" />
            <mxPoint x="860" y="710" as="targetPoint" />
          </mxGeometry>
        </mxCell>
        <mxCell id="-JUh_HezEt9LTVMWiMuT-14" value="&lt;font style=&quot;font-size: 15px;&quot;&gt;utilisateur cree&lt;/font&gt;" style="text;html=1;align=center;verticalAlign=middle;resizable=0;points=[];autosize=1;strokeColor=none;fillColor=none;" parent="K-NkV97JLidoQYmr00XE-3" vertex="1">
          <mxGeometry x="965" y="680" width="120" height="30" as="geometry" />
        </mxCell>
        <mxCell id="-JUh_HezEt9LTVMWiMuT-15" value="" style="endArrow=open;dashed=1;endFill=0;endSize=12;html=1;rounded=0;" parent="K-NkV97JLidoQYmr00XE-3" edge="1">
          <mxGeometry width="160" relative="1" as="geometry">
            <mxPoint x="780.04" y="790" as="sourcePoint" />
            <mxPoint x="349.97" y="790" as="targetPoint" />
          </mxGeometry>
        </mxCell>
        <mxCell id="-JUh_HezEt9LTVMWiMuT-42" value="" style="rounded=0;whiteSpace=wrap;html=1;" parent="K-NkV97JLidoQYmr00XE-3" vertex="1">
          <mxGeometry x="775" y="400" width="10" height="470" as="geometry" />
        </mxCell>
        <mxCell id="dC0_S4ZTw7oMldLHueib-3" value="&lt;font style=&quot;font-size: 15px;&quot;&gt;&amp;nbsp;redirige l&#39;etilisateur vers la page de chat&amp;nbsp;&lt;/font&gt;" style="text;html=1;align=center;verticalAlign=middle;resizable=0;points=[];autosize=1;strokeColor=none;fillColor=none;" vertex="1" parent="K-NkV97JLidoQYmr00XE-3">
          <mxGeometry x="420" y="770" width="300" height="30" as="geometry" />
        </mxCell>
        <mxCell id="dC0_S4ZTw7oMldLHueib-4" value="" style="endArrow=classic;html=1;rounded=0;" edge="1" parent="K-NkV97JLidoQYmr00XE-3">
          <mxGeometry width="50" height="50" relative="1" as="geometry">
            <mxPoint x="785.0014285714285" y="809" as="sourcePoint" />
            <mxPoint x="1699.5" y="809" as="targetPoint" />
          </mxGeometry>
        </mxCell>
        <mxCell id="dC0_S4ZTw7oMldLHueib-5" value="&lt;font style=&quot;font-size: 15px;&quot;&gt;Ouverture du websocket&lt;/font&gt;" style="text;html=1;align=center;verticalAlign=middle;resizable=0;points=[];autosize=1;strokeColor=none;fillColor=none;" vertex="1" parent="K-NkV97JLidoQYmr00XE-3">
          <mxGeometry x="1100" y="779" width="190" height="30" as="geometry" />
        </mxCell>
        <mxCell id="dC0_S4ZTw7oMldLHueib-7" value="" style="endArrow=classic;html=1;rounded=0;exitX=0.979;exitY=0.701;exitDx=0;exitDy=0;exitPerimeter=0;" edge="1" parent="K-NkV97JLidoQYmr00XE-3" source="-JUh_HezEt9LTVMWiMuT-42" target="Rs2yxnJCl3-W8B5lqrMH-7">
          <mxGeometry width="50" height="50" relative="1" as="geometry">
            <mxPoint x="785" y="740" as="sourcePoint" />
            <mxPoint x="835" y="690" as="targetPoint" />
            <Array as="points">
              <mxPoint x="820" y="730" />
              <mxPoint x="820" y="760" />
            </Array>
          </mxGeometry>
        </mxCell>
        <mxCell id="dC0_S4ZTw7oMldLHueib-8" value="&lt;font style=&quot;font-size: 15px;&quot;&gt;redirection page de chat&lt;/font&gt;" style="text;html=1;align=center;verticalAlign=middle;resizable=0;points=[];autosize=1;strokeColor=none;fillColor=none;" vertex="1" parent="K-NkV97JLidoQYmr00XE-3">
          <mxGeometry x="815" y="730" width="180" height="30" as="geometry" />
        </mxCell>
      </root>
    </mxGraphModel>
  </diagram>
  <diagram name="Diagramme de sequence - chat" id="SSXqt57xiAkK8iCRNpeB">
    <mxGraphModel dx="1024" dy="621" grid="1" gridSize="10" guides="1" tooltips="1" connect="1" arrows="1" fold="1" page="1" pageScale="1" pageWidth="827" pageHeight="1169" math="0" shadow="0">
      <root>
        <mxCell id="4Q9uoFXePG8X_ZwwkyDk-0" />
        <mxCell id="4Q9uoFXePG8X_ZwwkyDk-1" parent="4Q9uoFXePG8X_ZwwkyDk-0" />
        <mxCell id="4Q9uoFXePG8X_ZwwkyDk-2" value="&lt;span style=&quot;font-size: 25px;&quot;&gt;Diagramme de sequence&amp;nbsp;&lt;/span&gt;&lt;div&gt;&lt;span style=&quot;font-size: 25px;&quot;&gt;utilisation du chat&lt;/span&gt;&lt;/div&gt;" style="shape=umlFrame;whiteSpace=wrap;html=1;pointerEvents=0;recursiveResize=0;container=1;collapsible=0;width=480;height=120;" vertex="1" parent="4Q9uoFXePG8X_ZwwkyDk-1">
          <mxGeometry x="240" y="360" width="2370" height="1300" as="geometry" />
        </mxCell>
        <mxCell id="4Q9uoFXePG8X_ZwwkyDk-3" value="Serveur web" style="shape=umlLifeline;perimeter=lifelinePerimeter;whiteSpace=wrap;html=1;container=1;dropTarget=0;collapsible=0;recursiveResize=0;outlineConnect=0;portConstraint=eastwest;newEdgeStyle={&quot;curved&quot;:0,&quot;rounded&quot;:0};" vertex="1" parent="4Q9uoFXePG8X_ZwwkyDk-2">
          <mxGeometry x="730" y="280" width="100" height="920" as="geometry" />
        </mxCell>
        <mxCell id="4Q9uoFXePG8X_ZwwkyDk-4" value="" style="group" vertex="1" connectable="0" parent="4Q9uoFXePG8X_ZwwkyDk-2">
          <mxGeometry x="320" y="188" width="90" height="2610" as="geometry" />
        </mxCell>
        <mxCell id="4Q9uoFXePG8X_ZwwkyDk-5" value="Utilisateur 1" style="text;html=1;align=center;verticalAlign=middle;resizable=0;points=[];autosize=1;strokeColor=none;fillColor=none;" vertex="1" parent="4Q9uoFXePG8X_ZwwkyDk-4">
          <mxGeometry width="90" height="30" as="geometry" />
        </mxCell>
        <mxCell id="4Q9uoFXePG8X_ZwwkyDk-6" value="" style="shape=umlLifeline;perimeter=lifelinePerimeter;whiteSpace=wrap;html=1;container=1;dropTarget=0;collapsible=0;recursiveResize=0;outlineConnect=0;portConstraint=eastwest;newEdgeStyle={&quot;curved&quot;:0,&quot;rounded&quot;:0};participant=umlActor;size=90;" vertex="1" parent="4Q9uoFXePG8X_ZwwkyDk-4">
          <mxGeometry x="10" y="72" width="40" height="938" as="geometry" />
        </mxCell>
        <mxCell id="4Q9uoFXePG8X_ZwwkyDk-13" value="Base de donnee" style="shape=umlLifeline;perimeter=lifelinePerimeter;whiteSpace=wrap;html=1;container=1;dropTarget=0;collapsible=0;recursiveResize=0;outlineConnect=0;portConstraint=eastwest;newEdgeStyle={&quot;curved&quot;:0,&quot;rounded&quot;:0};" vertex="1" parent="4Q9uoFXePG8X_ZwwkyDk-2">
          <mxGeometry x="1670" y="280" width="100" height="920" as="geometry" />
        </mxCell>
        <mxCell id="4Q9uoFXePG8X_ZwwkyDk-14" value="websocket" style="shape=umlLifeline;perimeter=lifelinePerimeter;whiteSpace=wrap;html=1;container=1;dropTarget=0;collapsible=0;recursiveResize=0;outlineConnect=0;portConstraint=eastwest;newEdgeStyle={&quot;curved&quot;:0,&quot;rounded&quot;:0};" vertex="1" parent="4Q9uoFXePG8X_ZwwkyDk-2">
          <mxGeometry x="1250" y="270" width="100" height="920" as="geometry" />
        </mxCell>
        <mxCell id="4Q9uoFXePG8X_ZwwkyDk-15" value="" style="group" vertex="1" connectable="0" parent="4Q9uoFXePG8X_ZwwkyDk-2">
          <mxGeometry x="2050" y="170" width="90" height="2570" as="geometry" />
        </mxCell>
        <mxCell id="4Q9uoFXePG8X_ZwwkyDk-16" value="Utilisateur 2" style="text;html=1;align=center;verticalAlign=middle;resizable=0;points=[];autosize=1;strokeColor=none;fillColor=none;" vertex="1" parent="4Q9uoFXePG8X_ZwwkyDk-15">
          <mxGeometry width="90" height="30" as="geometry" />
        </mxCell>
        <mxCell id="4Q9uoFXePG8X_ZwwkyDk-17" value="" style="shape=umlLifeline;perimeter=lifelinePerimeter;whiteSpace=wrap;html=1;container=1;dropTarget=0;collapsible=0;recursiveResize=0;outlineConnect=0;portConstraint=eastwest;newEdgeStyle={&quot;curved&quot;:0,&quot;rounded&quot;:0};participant=umlActor;size=90;" vertex="1" parent="4Q9uoFXePG8X_ZwwkyDk-15">
          <mxGeometry x="10" y="60.23" width="40" height="889.77" as="geometry" />
        </mxCell>
        <mxCell id="0PSZlbTanvNEzAcd0qJ--1" value="&lt;font style=&quot;font-size: 14px;&quot;&gt;l&#39;utilisateur veux envoyer un message&lt;/font&gt;" style="text;html=1;align=center;verticalAlign=middle;resizable=0;points=[];autosize=1;strokeColor=none;fillColor=none;" vertex="1" parent="4Q9uoFXePG8X_ZwwkyDk-2">
          <mxGeometry x="430" y="340" width="260" height="30" as="geometry" />
        </mxCell>
        <mxCell id="EQf-Hksu-rzSKM31XiFe-0" value="" style="endArrow=classic;html=1;rounded=0;" edge="1" parent="4Q9uoFXePG8X_ZwwkyDk-2">
          <mxGeometry width="50" height="50" relative="1" as="geometry">
            <mxPoint x="779.6304347826085" y="410" as="sourcePoint" />
            <mxPoint x="1719.5" y="410" as="targetPoint" />
            <Array as="points">
              <mxPoint x="1490" y="410" />
            </Array>
          </mxGeometry>
        </mxCell>
        <mxCell id="0PSZlbTanvNEzAcd0qJ--0" value="" style="endArrow=classic;html=1;rounded=0;" edge="1" parent="4Q9uoFXePG8X_ZwwkyDk-2">
          <mxGeometry width="50" height="50" relative="1" as="geometry">
            <mxPoint x="1300" y="480" as="sourcePoint" />
            <mxPoint x="1719.83" y="480.0000000000002" as="targetPoint" />
          </mxGeometry>
        </mxCell>
        <mxCell id="EQf-Hksu-rzSKM31XiFe-3" value="&lt;span style=&quot;font-size: 14px;&quot;&gt;Websocket écoute la base de données pour&amp;nbsp;&lt;/span&gt;&lt;div&gt;&lt;span style=&quot;font-size: 14px;&quot;&gt;checker s&#39;il y a un nouveau message.&lt;/span&gt;&lt;br&gt;&lt;/div&gt;" style="text;html=1;align=center;verticalAlign=middle;resizable=0;points=[];autosize=1;strokeColor=none;fillColor=none;" vertex="1" parent="4Q9uoFXePG8X_ZwwkyDk-2">
          <mxGeometry x="1365" y="430" width="300" height="50" as="geometry" />
        </mxCell>
        <mxCell id="EQf-Hksu-rzSKM31XiFe-5" value="" style="endArrow=classic;html=1;rounded=0;entryX=0.5;entryY=0.13;entryDx=0;entryDy=0;entryPerimeter=0;" edge="1" parent="4Q9uoFXePG8X_ZwwkyDk-2">
          <mxGeometry width="50" height="50" relative="1" as="geometry">
            <mxPoint x="350" y="370.4" as="sourcePoint" />
            <mxPoint x="780" y="370.0000000000001" as="targetPoint" />
          </mxGeometry>
        </mxCell>
        <mxCell id="EQf-Hksu-rzSKM31XiFe-6" value="" style="endArrow=classic;html=1;rounded=0;dashed=1;dashPattern=8 8;" edge="1" parent="4Q9uoFXePG8X_ZwwkyDk-2">
          <mxGeometry width="50" height="50" relative="1" as="geometry">
            <mxPoint x="1719.5" y="550.0000000000002" as="sourcePoint" />
            <mxPoint x="1299.6304347826085" y="550.0000000000002" as="targetPoint" />
          </mxGeometry>
        </mxCell>
        <mxCell id="EQf-Hksu-rzSKM31XiFe-7" value="&lt;span style=&quot;font-size: 14px;&quot;&gt;Renvoie un message a bien ette recu&lt;/span&gt;" style="text;html=1;align=center;verticalAlign=middle;resizable=0;points=[];autosize=1;strokeColor=none;fillColor=none;" vertex="1" parent="4Q9uoFXePG8X_ZwwkyDk-2">
          <mxGeometry x="1385" y="510" width="260" height="30" as="geometry" />
        </mxCell>
        <mxCell id="EQf-Hksu-rzSKM31XiFe-8" value="" style="endArrow=classic;html=1;rounded=0;dashed=1;dashPattern=8 8;" edge="1" parent="4Q9uoFXePG8X_ZwwkyDk-2" target="4Q9uoFXePG8X_ZwwkyDk-3">
          <mxGeometry width="50" height="50" relative="1" as="geometry">
            <mxPoint x="1299.87" y="600.0000000000002" as="sourcePoint" />
            <mxPoint x="880.0004347826084" y="600.0000000000002" as="targetPoint" />
          </mxGeometry>
        </mxCell>
        <mxCell id="EQf-Hksu-rzSKM31XiFe-9" value="&lt;span style=&quot;font-size: 14px;&quot;&gt;Notification du nouveau message&lt;/span&gt;" style="text;html=1;align=center;verticalAlign=middle;resizable=0;points=[];autosize=1;strokeColor=none;fillColor=none;" vertex="1" parent="4Q9uoFXePG8X_ZwwkyDk-2">
          <mxGeometry x="895" y="560" width="230" height="30" as="geometry" />
        </mxCell>
        <mxCell id="EQf-Hksu-rzSKM31XiFe-10" value="" style="endArrow=classic;html=1;rounded=0;" edge="1" parent="4Q9uoFXePG8X_ZwwkyDk-2">
          <mxGeometry width="50" height="50" relative="1" as="geometry">
            <mxPoint x="779.6304347826085" y="680" as="sourcePoint" />
            <mxPoint x="1719.5" y="680" as="targetPoint" />
            <Array as="points">
              <mxPoint x="1490" y="680" />
            </Array>
          </mxGeometry>
        </mxCell>
        <mxCell id="EQf-Hksu-rzSKM31XiFe-1" value="&lt;font style=&quot;font-size: 14px;&quot;&gt;Récupère le message dans la base de données.&lt;/font&gt;" style="text;html=1;align=center;verticalAlign=middle;resizable=0;points=[];autosize=1;strokeColor=none;fillColor=none;" vertex="1" parent="4Q9uoFXePG8X_ZwwkyDk-2">
          <mxGeometry x="1114" y="650" width="320" height="30" as="geometry" />
        </mxCell>
        <mxCell id="EQf-Hksu-rzSKM31XiFe-17" value="" style="endArrow=classic;html=1;rounded=0;dashed=1;dashPattern=8 8;" edge="1" parent="4Q9uoFXePG8X_ZwwkyDk-2" target="4Q9uoFXePG8X_ZwwkyDk-3">
          <mxGeometry width="50" height="50" relative="1" as="geometry">
            <mxPoint x="1719.5" y="760.0000000000002" as="sourcePoint" />
            <mxPoint x="1299.6304347826085" y="760.0000000000002" as="targetPoint" />
          </mxGeometry>
        </mxCell>
        <mxCell id="EQf-Hksu-rzSKM31XiFe-18" value="&lt;span style=&quot;font-size: 14px;&quot;&gt;Retourne le message récupéré.&amp;nbsp;&lt;/span&gt;" style="text;html=1;align=center;verticalAlign=middle;resizable=0;points=[];autosize=1;strokeColor=none;fillColor=none;" vertex="1" parent="4Q9uoFXePG8X_ZwwkyDk-2">
          <mxGeometry x="1164" y="725" width="220" height="30" as="geometry" />
        </mxCell>
        <mxCell id="EQf-Hksu-rzSKM31XiFe-22" value="" style="endArrow=classic;html=1;rounded=0;dashed=1;dashPattern=8 8;" edge="1" parent="4Q9uoFXePG8X_ZwwkyDk-2">
          <mxGeometry width="50" height="50" relative="1" as="geometry">
            <mxPoint x="780" y="850" as="sourcePoint" />
            <mxPoint x="349.54999999999995" y="850" as="targetPoint" />
          </mxGeometry>
        </mxCell>
        <mxCell id="EQf-Hksu-rzSKM31XiFe-23" value="&lt;span style=&quot;font-size: 14px;&quot;&gt;Affiche le message envoyé.&lt;/span&gt;" style="text;html=1;align=center;verticalAlign=middle;resizable=0;points=[];autosize=1;strokeColor=none;fillColor=none;" vertex="1" parent="4Q9uoFXePG8X_ZwwkyDk-2">
          <mxGeometry x="440" y="820" width="190" height="30" as="geometry" />
        </mxCell>
        <mxCell id="EQf-Hksu-rzSKM31XiFe-25" value="&lt;font style=&quot;font-size: 14px;&quot;&gt;Envoie le message dans la base de données.&lt;/font&gt;" style="text;html=1;align=center;verticalAlign=middle;resizable=0;points=[];autosize=1;strokeColor=none;fillColor=none;" vertex="1" parent="4Q9uoFXePG8X_ZwwkyDk-2">
          <mxGeometry x="1175" y="380" width="310" height="30" as="geometry" />
        </mxCell>
      </root>
    </mxGraphModel>
  </diagram>
  <diagram name="Diagramme de sequence -  dashboard" id="8-YZoUm12QDc1_7shlp0">
    <mxGraphModel dx="1247" dy="757" grid="1" gridSize="10" guides="1" tooltips="1" connect="1" arrows="1" fold="1" page="1" pageScale="1" pageWidth="827" pageHeight="1169" math="0" shadow="0">
      <root>
        <mxCell id="Q3F7k_pxWJUQUHPvUb6_-0" />
        <mxCell id="Q3F7k_pxWJUQUHPvUb6_-1" parent="Q3F7k_pxWJUQUHPvUb6_-0" />
        <mxCell id="Q3F7k_pxWJUQUHPvUb6_-2" value="&lt;span style=&quot;font-size: 25px;&quot;&gt;Diagramme de sequence&amp;nbsp;&lt;/span&gt;&lt;div&gt;&lt;span style=&quot;font-size: 25px;&quot;&gt;dashboard&lt;/span&gt;&lt;/div&gt;" style="shape=umlFrame;whiteSpace=wrap;html=1;pointerEvents=0;recursiveResize=0;container=1;collapsible=0;width=480;height=120;" vertex="1" parent="Q3F7k_pxWJUQUHPvUb6_-1">
          <mxGeometry x="240" y="360" width="1850" height="1060" as="geometry" />
        </mxCell>
        <mxCell id="Q3F7k_pxWJUQUHPvUb6_-3" value="Serveur web" style="shape=umlLifeline;perimeter=lifelinePerimeter;whiteSpace=wrap;html=1;container=1;dropTarget=0;collapsible=0;recursiveResize=0;outlineConnect=0;portConstraint=eastwest;newEdgeStyle={&quot;curved&quot;:0,&quot;rounded&quot;:0};" vertex="1" parent="Q3F7k_pxWJUQUHPvUb6_-2">
          <mxGeometry x="730" y="280" width="100" height="720" as="geometry" />
        </mxCell>
        <mxCell id="Q3F7k_pxWJUQUHPvUb6_-4" value="" style="group" vertex="1" connectable="0" parent="Q3F7k_pxWJUQUHPvUb6_-2">
          <mxGeometry x="320" y="188" width="90" height="2622" as="geometry" />
        </mxCell>
        <mxCell id="Q3F7k_pxWJUQUHPvUb6_-5" value="Utilisateur 1" style="text;html=1;align=center;verticalAlign=middle;resizable=0;points=[];autosize=1;strokeColor=none;fillColor=none;" vertex="1" parent="Q3F7k_pxWJUQUHPvUb6_-4">
          <mxGeometry width="90" height="30" as="geometry" />
        </mxCell>
        <mxCell id="Q3F7k_pxWJUQUHPvUb6_-6" value="" style="shape=umlLifeline;perimeter=lifelinePerimeter;whiteSpace=wrap;html=1;container=1;dropTarget=0;collapsible=0;recursiveResize=0;outlineConnect=0;portConstraint=eastwest;newEdgeStyle={&quot;curved&quot;:0,&quot;rounded&quot;:0};participant=umlActor;size=90;" vertex="1" parent="Q3F7k_pxWJUQUHPvUb6_-4">
          <mxGeometry x="10" y="72.33" width="40" height="737.67" as="geometry" />
        </mxCell>
        <mxCell id="Q3F7k_pxWJUQUHPvUb6_-8" value="Base de donnee" style="shape=umlLifeline;perimeter=lifelinePerimeter;whiteSpace=wrap;html=1;container=1;dropTarget=0;collapsible=0;recursiveResize=0;outlineConnect=0;portConstraint=eastwest;newEdgeStyle={&quot;curved&quot;:0,&quot;rounded&quot;:0};" vertex="1" parent="Q3F7k_pxWJUQUHPvUb6_-2">
          <mxGeometry x="1240" y="280" width="100" height="720" as="geometry" />
        </mxCell>
        <mxCell id="Q3F7k_pxWJUQUHPvUb6_-9" value="websocket" style="shape=umlLifeline;perimeter=lifelinePerimeter;whiteSpace=wrap;html=1;container=1;dropTarget=0;collapsible=0;recursiveResize=0;outlineConnect=0;portConstraint=eastwest;newEdgeStyle={&quot;curved&quot;:0,&quot;rounded&quot;:0};" vertex="1" parent="Q3F7k_pxWJUQUHPvUb6_-2">
          <mxGeometry x="1650" y="280" width="100" height="720" as="geometry" />
        </mxCell>
        <mxCell id="p2K7enyISJDMxsxf5LBZ-0" value="" style="endArrow=classic;html=1;rounded=0;exitX=0.5;exitY=0.162;exitDx=0;exitDy=0;exitPerimeter=0;" edge="1" parent="Q3F7k_pxWJUQUHPvUb6_-2" source="Q3F7k_pxWJUQUHPvUb6_-6" target="Q3F7k_pxWJUQUHPvUb6_-3">
          <mxGeometry width="50" height="50" relative="1" as="geometry">
            <mxPoint x="450" y="360" as="sourcePoint" />
            <mxPoint x="500" y="310" as="targetPoint" />
          </mxGeometry>
        </mxCell>
        <mxCell id="4TxORBwPpdDQCnAB-KRN-0" value="&lt;font style=&quot;font-size: 14px;&quot;&gt;L&#39;utilisateur veut accéder à son tableau de bord.&lt;/font&gt;" style="text;html=1;align=center;verticalAlign=middle;resizable=0;points=[];autosize=1;strokeColor=none;fillColor=none;" vertex="1" parent="Q3F7k_pxWJUQUHPvUb6_-2">
          <mxGeometry x="410" y="350" width="320" height="30" as="geometry" />
        </mxCell>
        <mxCell id="4TxORBwPpdDQCnAB-KRN-1" value="" style="endArrow=classic;html=1;rounded=0;" edge="1" parent="Q3F7k_pxWJUQUHPvUb6_-2" target="Q3F7k_pxWJUQUHPvUb6_-8">
          <mxGeometry width="50" height="50" relative="1" as="geometry">
            <mxPoint x="790" y="410" as="sourcePoint" />
            <mxPoint x="1210" y="410.16999999999996" as="targetPoint" />
          </mxGeometry>
        </mxCell>
        <mxCell id="4TxORBwPpdDQCnAB-KRN-2" value="&lt;font style=&quot;font-size: 14px;&quot;&gt;Récupère les informations de l&#39;utilisateur.&lt;/font&gt;" style="text;html=1;align=center;verticalAlign=middle;resizable=0;points=[];autosize=1;strokeColor=none;fillColor=none;" vertex="1" parent="Q3F7k_pxWJUQUHPvUb6_-2">
          <mxGeometry x="880" y="380" width="280" height="30" as="geometry" />
        </mxCell>
        <mxCell id="4TxORBwPpdDQCnAB-KRN-3" value="" style="endArrow=open;html=1;rounded=0;dashed=1;dashPattern=12 12;endFill=0;entryX=1;entryY=0.75;entryDx=0;entryDy=0;" edge="1" parent="Q3F7k_pxWJUQUHPvUb6_-2" target="4TxORBwPpdDQCnAB-KRN-7">
          <mxGeometry width="50" height="50" relative="1" as="geometry">
            <mxPoint x="1284.93" y="470" as="sourcePoint" />
            <mxPoint x="775.0604347826085" y="470" as="targetPoint" />
          </mxGeometry>
        </mxCell>
        <mxCell id="4TxORBwPpdDQCnAB-KRN-4" value="&lt;font style=&quot;font-size: 14px;&quot;&gt;La base de donnee envoie les informations personnel de l&#39;utilisateur&lt;/font&gt;" style="text;html=1;align=center;verticalAlign=middle;resizable=0;points=[];autosize=1;strokeColor=none;fillColor=none;" vertex="1" parent="Q3F7k_pxWJUQUHPvUb6_-2">
          <mxGeometry x="810" y="440" width="440" height="30" as="geometry" />
        </mxCell>
        <mxCell id="4TxORBwPpdDQCnAB-KRN-5" value="" style="endArrow=open;html=1;rounded=0;dashed=1;dashPattern=12 12;endFill=0;" edge="1" parent="Q3F7k_pxWJUQUHPvUb6_-2">
          <mxGeometry width="50" height="50" relative="1" as="geometry">
            <mxPoint x="780" y="500" as="sourcePoint" />
            <mxPoint x="350.0004347826085" y="500" as="targetPoint" />
          </mxGeometry>
        </mxCell>
        <mxCell id="4TxORBwPpdDQCnAB-KRN-6" value="&lt;span style=&quot;font-size: 14px;&quot;&gt;Le serveur web retourne le tableau de bord avec les&lt;/span&gt;&lt;div&gt;&lt;span style=&quot;font-size: 14px;&quot;&gt;&amp;nbsp;informations personnelles de l&#39;utilisateur.&lt;/span&gt;&lt;br&gt;&lt;/div&gt;" style="text;html=1;align=center;verticalAlign=middle;resizable=0;points=[];autosize=1;strokeColor=none;fillColor=none;" vertex="1" parent="Q3F7k_pxWJUQUHPvUb6_-2">
          <mxGeometry x="395" y="450" width="350" height="50" as="geometry" />
        </mxCell>
        <mxCell id="4TxORBwPpdDQCnAB-KRN-7" value="" style="rounded=0;whiteSpace=wrap;html=1;" vertex="1" parent="Q3F7k_pxWJUQUHPvUb6_-2">
          <mxGeometry x="775" y="380" width="10" height="120" as="geometry" />
        </mxCell>
        <mxCell id="4TxORBwPpdDQCnAB-KRN-8" value="" style="endArrow=classic;html=1;rounded=0;exitX=0.5;exitY=0.162;exitDx=0;exitDy=0;exitPerimeter=0;" edge="1" parent="Q3F7k_pxWJUQUHPvUb6_-2">
          <mxGeometry width="50" height="50" relative="1" as="geometry">
            <mxPoint x="350" y="590" as="sourcePoint" />
            <mxPoint x="780" y="590" as="targetPoint" />
          </mxGeometry>
        </mxCell>
        <mxCell id="4TxORBwPpdDQCnAB-KRN-9" value="&lt;font style=&quot;font-size: 14px;&quot;&gt;L&#39;utilisateur veut modifier ces informations personnelles&lt;/font&gt;&lt;div&gt;&lt;font style=&quot;font-size: 14px;&quot;&gt;click sur le bouton modifier.&lt;/font&gt;&lt;/div&gt;" style="text;html=1;align=center;verticalAlign=middle;resizable=0;points=[];autosize=1;strokeColor=none;fillColor=none;" vertex="1" parent="Q3F7k_pxWJUQUHPvUb6_-2">
          <mxGeometry x="380" y="540" width="370" height="50" as="geometry" />
        </mxCell>
        <mxCell id="4TxORBwPpdDQCnAB-KRN-19" value="&lt;div&gt;&lt;span style=&quot;font-size: 14px;&quot;&gt;retourne un formulaire de modification&lt;/span&gt;&lt;/div&gt;&lt;div&gt;&lt;span style=&quot;font-size: 14px;&quot;&gt;d&#39;information personnel&lt;/span&gt;&lt;/div&gt;" style="text;html=1;align=center;verticalAlign=middle;resizable=0;points=[];autosize=1;strokeColor=none;fillColor=none;" vertex="1" parent="Q3F7k_pxWJUQUHPvUb6_-2">
          <mxGeometry x="447.5" y="640" width="260" height="50" as="geometry" />
        </mxCell>
        <mxCell id="4TxORBwPpdDQCnAB-KRN-20" value="" style="endArrow=classic;html=1;rounded=0;exitX=0.5;exitY=0.162;exitDx=0;exitDy=0;exitPerimeter=0;" edge="1" parent="Q3F7k_pxWJUQUHPvUb6_-2">
          <mxGeometry width="50" height="50" relative="1" as="geometry">
            <mxPoint x="352.5" y="770" as="sourcePoint" />
            <mxPoint x="770" y="770" as="targetPoint" />
          </mxGeometry>
        </mxCell>
        <mxCell id="4TxORBwPpdDQCnAB-KRN-21" value="&lt;span style=&quot;font-size: 14px;&quot;&gt;valide le formulaire de modification avec&amp;nbsp;&lt;/span&gt;&lt;div&gt;&lt;span style=&quot;font-size: 14px;&quot;&gt;le ou les informations modifier&lt;/span&gt;&lt;/div&gt;" style="text;html=1;align=center;verticalAlign=middle;resizable=0;points=[];autosize=1;strokeColor=none;fillColor=none;" vertex="1" parent="Q3F7k_pxWJUQUHPvUb6_-2">
          <mxGeometry x="427.5" y="720" width="280" height="50" as="geometry" />
        </mxCell>
        <mxCell id="4TxORBwPpdDQCnAB-KRN-18" value="" style="endArrow=open;html=1;rounded=0;dashed=1;dashPattern=12 12;endFill=0;" edge="1" parent="Q3F7k_pxWJUQUHPvUb6_-2">
          <mxGeometry width="50" height="50" relative="1" as="geometry">
            <mxPoint x="780" y="690" as="sourcePoint" />
            <mxPoint x="350.0004347826085" y="690" as="targetPoint" />
          </mxGeometry>
        </mxCell>
        <mxCell id="4TxORBwPpdDQCnAB-KRN-22" value="" style="endArrow=classic;html=1;rounded=0;exitX=0.5;exitY=0.736;exitDx=0;exitDy=0;exitPerimeter=0;" edge="1" parent="Q3F7k_pxWJUQUHPvUb6_-2" source="Q3F7k_pxWJUQUHPvUb6_-3" target="Q3F7k_pxWJUQUHPvUb6_-8">
          <mxGeometry width="50" height="50" relative="1" as="geometry">
            <mxPoint x="785" y="810" as="sourcePoint" />
            <mxPoint x="1215" y="810" as="targetPoint" />
          </mxGeometry>
        </mxCell>
        <mxCell id="4TxORBwPpdDQCnAB-KRN-23" value="&lt;span style=&quot;font-size: 14px;&quot;&gt;Envoi la ou les données modifier dans le serveur&lt;/span&gt;" style="text;html=1;align=center;verticalAlign=middle;resizable=0;points=[];autosize=1;strokeColor=none;fillColor=none;" vertex="1" parent="Q3F7k_pxWJUQUHPvUb6_-2">
          <mxGeometry x="855" y="779" width="330" height="30" as="geometry" />
        </mxCell>
        <mxCell id="4TxORBwPpdDQCnAB-KRN-24" value="" style="endArrow=open;html=1;rounded=0;dashed=1;dashPattern=12 12;endFill=0;entryX=1;entryY=0.75;entryDx=0;entryDy=0;" edge="1" parent="Q3F7k_pxWJUQUHPvUb6_-2">
          <mxGeometry width="50" height="50" relative="1" as="geometry">
            <mxPoint x="1284.93" y="880" as="sourcePoint" />
            <mxPoint x="785" y="880" as="targetPoint" />
          </mxGeometry>
        </mxCell>
        <mxCell id="4TxORBwPpdDQCnAB-KRN-25" value="&lt;span style=&quot;font-size: 14px;&quot;&gt;Retourne les données modifiées.&lt;/span&gt;" style="text;html=1;align=center;verticalAlign=middle;resizable=0;points=[];autosize=1;strokeColor=none;fillColor=none;" vertex="1" parent="Q3F7k_pxWJUQUHPvUb6_-2">
          <mxGeometry x="915" y="850" width="230" height="30" as="geometry" />
        </mxCell>
        <mxCell id="4TxORBwPpdDQCnAB-KRN-26" value="" style="endArrow=open;html=1;rounded=0;dashed=1;dashPattern=12 12;endFill=0;entryX=1;entryY=0.75;entryDx=0;entryDy=0;" edge="1" parent="Q3F7k_pxWJUQUHPvUb6_-2">
          <mxGeometry width="50" height="50" relative="1" as="geometry">
            <mxPoint x="780" y="930" as="sourcePoint" />
            <mxPoint x="350" y="930" as="targetPoint" />
          </mxGeometry>
        </mxCell>
        <mxCell id="4TxORBwPpdDQCnAB-KRN-27" value="&lt;span style=&quot;font-size: 14px;&quot;&gt;Retourne les formulaires avec&amp;nbsp;&lt;/span&gt;&lt;div&gt;&lt;span style=&quot;font-size: 14px;&quot;&gt;les informations personnelles modifiées&lt;/span&gt;&lt;br&gt;&lt;/div&gt;" style="text;html=1;align=center;verticalAlign=middle;resizable=0;points=[];autosize=1;strokeColor=none;fillColor=none;" vertex="1" parent="Q3F7k_pxWJUQUHPvUb6_-2">
          <mxGeometry x="410" y="880" width="270" height="50" as="geometry" />
        </mxCell>
        <mxCell id="4TxORBwPpdDQCnAB-KRN-28" value="" style="rounded=0;whiteSpace=wrap;html=1;" vertex="1" parent="Q3F7k_pxWJUQUHPvUb6_-2">
          <mxGeometry x="775" y="590" width="10" height="340" as="geometry" />
        </mxCell>
      </root>
    </mxGraphModel>
  </diagram>
  <diagram name="Diagramme d&#39;activite" id="ZkuNU9szLIqudTEzwdnE">
    <mxGraphModel dx="819" dy="497" grid="1" gridSize="10" guides="1" tooltips="1" connect="1" arrows="1" fold="1" page="1" pageScale="1" pageWidth="827" pageHeight="1169" math="0" shadow="0">
      <root>
        <mxCell id="0" />
        <mxCell id="1" parent="0" />
      </root>
    </mxGraphModel>
  </diagram>
</mxfile>
